<svg width="24" height="24" viewBox="0 0 24 24" fill="none" xmlns="http://www.w3.org/2000/svg">
<path fill-rule="evenodd" clip-rule="evenodd" d="M17.256 10.2491L16.9336 12.5993H13.0607V20.8249H10.7072V12.5993H7.17679V10.2491H10.7072V8.09518C10.7072 5.10694 12.5453 3.17508 15.392 3.17508C16.6111 3.17508 17.3713 3.23972 17.8103 3.29847L17.7761 5.52409L15.9662 5.52761C15.9168 5.52292 14.7377 5.43126 13.8868 6.21152C13.3385 6.71328 13.0607 7.43478 13.0607 8.35371V10.2491H17.256V10.2491ZM14.6765 7.08226C15.1401 6.651 15.8627 6.698 15.9156 6.70035L18.9353 6.69918L19 2.35018L18.5458 2.23854C18.2539 2.16687 17.3607 2 15.392 2C11.8863 2 9.53037 4.45006 9.53037 8.09518V9.07403H6V13.7744H9.53037V22H14.2375V13.7744H17.9585L18.6046 9.07403H14.2375V8.3537C14.2375 7.78144 14.3858 7.3537 14.6765 7.08226Z" fill="#2B3377" stroke="#2B3377" stroke-width="0.5"/>
</svg>
