<svg width="24" height="24" viewBox="0 0 24 24" fill="none" xmlns="http://www.w3.org/2000/svg">
<path fill-rule="evenodd" clip-rule="evenodd" d="M12.0004 17.454C15.0129 17.454 17.455 15.0119 17.455 11.9995C17.455 8.987 15.0129 6.54492 12.0004 6.54492C8.98798 6.54492 6.5459 8.987 6.5459 11.9995C6.5459 15.0119 8.98798 17.454 12.0004 17.454ZM12.0004 15.6358C14.0087 15.6358 15.6368 14.0077 15.6368 11.9995C15.6368 9.99116 14.0087 8.3631 12.0004 8.3631C9.99213 8.3631 8.36408 9.99116 8.36408 11.9995C8.36408 14.0077 9.99213 15.6358 12.0004 15.6358Z" fill="#2B3377"/>
<path d="M17.455 5.63672C16.9529 5.63672 16.5459 6.04374 16.5459 6.54581C16.5459 7.04788 16.9529 7.4549 17.455 7.4549C17.9571 7.4549 18.3641 7.04788 18.3641 6.54581C18.3641 6.04374 17.9571 5.63672 17.455 5.63672Z" fill="#2B3377"/>
<path fill-rule="evenodd" clip-rule="evenodd" d="M2.59451 4.97824C2 6.14503 2 7.67245 2 10.7273V13.2727C2 16.3275 2 17.855 2.59451 19.0217C3.11745 20.0481 3.95189 20.8825 4.97824 21.4055C6.14503 22 7.67245 22 10.7273 22H13.2727C16.3275 22 17.855 22 19.0217 21.4055C20.0481 20.8825 20.8825 20.0481 21.4055 19.0217C22 17.855 22 16.3275 22 13.2727V10.7273C22 7.67245 22 6.14503 21.4055 4.97824C20.8825 3.95189 20.0481 3.11745 19.0217 2.59451C17.855 2 16.3275 2 13.2727 2H10.7273C7.67245 2 6.14503 2 4.97824 2.59451C3.95189 3.11745 3.11745 3.95189 2.59451 4.97824ZM13.2727 3.81818H10.7273C9.16986 3.81818 8.11114 3.8196 7.2928 3.88645C6.49567 3.95158 6.08804 4.06963 5.80367 4.21452C5.11945 4.56315 4.56315 5.11945 4.21452 5.80367C4.06963 6.08804 3.95158 6.49567 3.88645 7.2928C3.8196 8.11114 3.81818 9.16986 3.81818 10.7273V13.2727C3.81818 14.8302 3.8196 15.8888 3.88645 16.7072C3.95158 17.5044 4.06963 17.912 4.21452 18.1964C4.56315 18.8805 5.11945 19.4368 5.80367 19.7855C6.08804 19.9304 6.49567 20.0485 7.2928 20.1135C8.11114 20.1804 9.16986 20.1818 10.7273 20.1818H13.2727C14.8302 20.1818 15.8888 20.1804 16.7072 20.1135C17.5044 20.0485 17.912 19.9304 18.1964 19.7855C18.8805 19.4368 19.4368 18.8805 19.7855 18.1964C19.9304 17.912 20.0485 17.5044 20.1135 16.7072C20.1804 15.8888 20.1818 14.8302 20.1818 13.2727V10.7273C20.1818 9.16986 20.1804 8.11114 20.1135 7.2928C20.0485 6.49567 19.9304 6.08804 19.7855 5.80367C19.4368 5.11945 18.8805 4.56315 18.1964 4.21452C17.912 4.06963 17.5044 3.95158 16.7072 3.88645C15.8888 3.8196 14.8302 3.81818 13.2727 3.81818Z" fill="#2B3377"/>
</svg>
