<svg width="24" height="24" viewBox="0 0 24 24" fill="none" xmlns="http://www.w3.org/2000/svg">
<path d="M20.841 9.81855C20.3722 9.92035 18.9086 10.0832 16.8865 8.83716C16.8558 8.81743 16.8203 8.80634 16.7837 8.80505C16.7472 8.80375 16.711 8.81229 16.6789 8.82978C16.6468 8.84727 16.62 8.87306 16.6013 8.90445C16.5826 8.93583 16.5727 8.97167 16.5726 9.00819C16.5726 9.00819 16.5726 13.0803 16.5726 14.4364C16.5726 15.5277 16.6338 22.7436 9.57697 21.9373C9.57697 21.9373 4 21.5301 4 15.2875C4 15.2875 4.07746 9.66788 10.694 9.17922C10.7223 9.17699 10.7508 9.18058 10.7776 9.18975C10.8045 9.19893 10.8292 9.21351 10.8502 9.23258C10.8712 9.25166 10.8881 9.27483 10.8998 9.30067C10.9115 9.32651 10.9177 9.35447 10.9182 9.38283V12.2456C10.9196 12.2941 10.9028 12.3415 10.8712 12.3784C10.8395 12.4152 10.7953 12.439 10.747 12.4451C9.97241 12.555 6.85779 13.1781 7.20431 16.0164C7.29445 16.7413 7.65263 17.4064 8.20854 17.8811C8.76445 18.3558 9.47792 18.6057 10.2089 18.5818C10.2089 18.5818 13.0626 18.8995 13.193 14.9169V2.20361C13.1941 2.14993 13.2159 2.09875 13.2539 2.06079C13.2919 2.02283 13.3431 2.00104 13.3969 2H16.2017C16.2492 2.00017 16.2952 2.01696 16.3317 2.04745C16.3682 2.07794 16.3929 2.12022 16.4014 2.16696C16.5482 2.98139 17.388 6.16582 20.8043 6.36536C20.8562 6.36742 20.9054 6.38923 20.9418 6.42632C20.9782 6.46341 20.999 6.51298 21 6.56489V9.62308C21.0008 9.66916 20.9853 9.71404 20.9562 9.7498C20.9271 9.78557 20.8863 9.80991 20.841 9.81855Z" stroke="#2B3377" stroke-width="1.5" stroke-linecap="round"/>
</svg>
